<mxfile host="app.diagrams.net" modified="2023-06-08T15:00:06.692Z" agent="Mozilla/5.0 (Windows NT 10.0; Win64; x64) AppleWebKit/537.36 (KHTML, like Gecko) Chrome/114.0.0.0 Safari/537.36" etag="wgGtlYzp-pVRqhZI82Rz" version="21.3.7" type="device">
  <diagram id="woAN2kOj5xPp-C1Q6N83" name="Page-4">
    <mxGraphModel dx="1900" dy="1649" grid="1" gridSize="10" guides="1" tooltips="1" connect="1" arrows="1" fold="1" page="1" pageScale="1" pageWidth="850" pageHeight="1100" math="0" shadow="0">
      <root>
        <mxCell id="0" />
        <mxCell id="1" parent="0" />
        <mxCell id="sfJsisjDW1i8cSSSTUoh-18" value="" style="html=1;points=[];perimeter=orthogonalPerimeter;outlineConnect=0;targetShapes=umlLifeline;portConstraint=eastwest;newEdgeStyle={&quot;edgeStyle&quot;:&quot;elbowEdgeStyle&quot;,&quot;elbow&quot;:&quot;vertical&quot;,&quot;curved&quot;:0,&quot;rounded&quot;:0};" parent="1" vertex="1">
          <mxGeometry x="707.5" y="1506" width="10" height="24" as="geometry" />
        </mxCell>
        <mxCell id="GTGUJF7UafAMdIp2ymYp-3" value="" style="endArrow=none;dashed=1;html=1;rounded=0;entryX=0.5;entryY=1;entryDx=0;entryDy=0;" parent="1" target="GTGUJF7UafAMdIp2ymYp-1" edge="1">
          <mxGeometry width="50" height="50" relative="1" as="geometry">
            <mxPoint x="572" y="1550" as="sourcePoint" />
            <mxPoint x="230" y="1490" as="targetPoint" />
          </mxGeometry>
        </mxCell>
        <mxCell id="sfJsisjDW1i8cSSSTUoh-17" value="" style="html=1;points=[];perimeter=orthogonalPerimeter;outlineConnect=0;targetShapes=umlLifeline;portConstraint=eastwest;newEdgeStyle={&quot;edgeStyle&quot;:&quot;elbowEdgeStyle&quot;,&quot;elbow&quot;:&quot;vertical&quot;,&quot;curved&quot;:0,&quot;rounded&quot;:0};" parent="1" vertex="1">
          <mxGeometry x="565" y="1471" width="10" height="30" as="geometry" />
        </mxCell>
        <mxCell id="HPCcKQ3aulPoxstERWA4-2" value="" style="endArrow=none;dashed=1;html=1;rounded=0;" parent="1" edge="1">
          <mxGeometry width="50" height="50" relative="1" as="geometry">
            <mxPoint x="410" y="1560" as="sourcePoint" />
            <mxPoint x="410" y="-440" as="targetPoint" />
          </mxGeometry>
        </mxCell>
        <mxCell id="sfJsisjDW1i8cSSSTUoh-16" value="" style="html=1;points=[];perimeter=orthogonalPerimeter;outlineConnect=0;targetShapes=umlLifeline;portConstraint=eastwest;newEdgeStyle={&quot;edgeStyle&quot;:&quot;elbowEdgeStyle&quot;,&quot;elbow&quot;:&quot;vertical&quot;,&quot;curved&quot;:0,&quot;rounded&quot;:0};" parent="1" vertex="1">
          <mxGeometry x="405" y="1320" width="10" height="90" as="geometry" />
        </mxCell>
        <mxCell id="sfJsisjDW1i8cSSSTUoh-15" value="" style="html=1;points=[];perimeter=orthogonalPerimeter;outlineConnect=0;targetShapes=umlLifeline;portConstraint=eastwest;newEdgeStyle={&quot;edgeStyle&quot;:&quot;elbowEdgeStyle&quot;,&quot;elbow&quot;:&quot;vertical&quot;,&quot;curved&quot;:0,&quot;rounded&quot;:0};" parent="1" vertex="1">
          <mxGeometry x="245" y="1220" width="10" height="70" as="geometry" />
        </mxCell>
        <mxCell id="sfJsisjDW1i8cSSSTUoh-13" value="" style="html=1;points=[];perimeter=orthogonalPerimeter;outlineConnect=0;targetShapes=umlLifeline;portConstraint=eastwest;newEdgeStyle={&quot;edgeStyle&quot;:&quot;elbowEdgeStyle&quot;,&quot;elbow&quot;:&quot;vertical&quot;,&quot;curved&quot;:0,&quot;rounded&quot;:0};" parent="1" vertex="1">
          <mxGeometry x="35" y="-90" width="10" height="20" as="geometry" />
        </mxCell>
        <mxCell id="sfJsisjDW1i8cSSSTUoh-11" value="" style="html=1;points=[];perimeter=orthogonalPerimeter;outlineConnect=0;targetShapes=umlLifeline;portConstraint=eastwest;newEdgeStyle={&quot;edgeStyle&quot;:&quot;elbowEdgeStyle&quot;,&quot;elbow&quot;:&quot;vertical&quot;,&quot;curved&quot;:0,&quot;rounded&quot;:0};" parent="1" vertex="1">
          <mxGeometry x="-105" y="16" width="10" height="24" as="geometry" />
        </mxCell>
        <mxCell id="sfJsisjDW1i8cSSSTUoh-8" value="" style="html=1;points=[];perimeter=orthogonalPerimeter;outlineConnect=0;targetShapes=umlLifeline;portConstraint=eastwest;newEdgeStyle={&quot;edgeStyle&quot;:&quot;elbowEdgeStyle&quot;,&quot;elbow&quot;:&quot;vertical&quot;,&quot;curved&quot;:0,&quot;rounded&quot;:0};" parent="1" vertex="1">
          <mxGeometry x="-486.5" y="955" width="10" height="28" as="geometry" />
        </mxCell>
        <mxCell id="sfJsisjDW1i8cSSSTUoh-4" value="" style="html=1;points=[];perimeter=orthogonalPerimeter;outlineConnect=0;targetShapes=umlLifeline;portConstraint=eastwest;newEdgeStyle={&quot;edgeStyle&quot;:&quot;elbowEdgeStyle&quot;,&quot;elbow&quot;:&quot;vertical&quot;,&quot;curved&quot;:0,&quot;rounded&quot;:0};" parent="1" vertex="1">
          <mxGeometry x="-486.5" y="337" width="10" height="23" as="geometry" />
        </mxCell>
        <mxCell id="sfJsisjDW1i8cSSSTUoh-2" value="" style="html=1;points=[];perimeter=orthogonalPerimeter;outlineConnect=0;targetShapes=umlLifeline;portConstraint=eastwest;newEdgeStyle={&quot;edgeStyle&quot;:&quot;elbowEdgeStyle&quot;,&quot;elbow&quot;:&quot;vertical&quot;,&quot;curved&quot;:0,&quot;rounded&quot;:0};" parent="1" vertex="1">
          <mxGeometry x="-486.5" y="-272" width="10" height="22" as="geometry" />
        </mxCell>
        <mxCell id="9_Q27GqTtm4E6-cUoNaw-2" value="" style="endArrow=none;dashed=1;html=1;rounded=0;entryX=0.5;entryY=1;entryDx=0;entryDy=0;" parent="1" target="2oNhp4XppnsHo_3O3SMT-1" edge="1">
          <mxGeometry width="50" height="50" relative="1" as="geometry">
            <mxPoint x="-630" y="1562" as="sourcePoint" />
            <mxPoint x="-620" y="-320" as="targetPoint" />
          </mxGeometry>
        </mxCell>
        <mxCell id="sfJsisjDW1i8cSSSTUoh-1" value="" style="html=1;points=[];perimeter=orthogonalPerimeter;outlineConnect=0;targetShapes=umlLifeline;portConstraint=eastwest;newEdgeStyle={&quot;edgeStyle&quot;:&quot;elbowEdgeStyle&quot;,&quot;elbow&quot;:&quot;vertical&quot;,&quot;curved&quot;:0,&quot;rounded&quot;:0};" parent="1" vertex="1">
          <mxGeometry x="-639" y="-357" width="10" height="1877" as="geometry" />
        </mxCell>
        <mxCell id="plK7vpZ-MsxnlpjkOujk-1" value="Ξεναγός&lt;br&gt;" style="shape=umlActor;verticalLabelPosition=bottom;verticalAlign=top;html=1;" parent="1" vertex="1">
          <mxGeometry x="-831" y="-500" width="30" height="60" as="geometry" />
        </mxCell>
        <mxCell id="2oNhp4XppnsHo_3O3SMT-1" value="&lt;b&gt;:NewQuizController&lt;/b&gt;" style="html=1;whiteSpace=wrap;" parent="1" vertex="1">
          <mxGeometry x="-690" y="-480" width="120" height="40" as="geometry" />
        </mxCell>
        <mxCell id="OZdUed6lWy20u_6zU2IN-1" value="MissingInfoMessage" style="rounded=0;whiteSpace=wrap;html=1;" parent="1" vertex="1">
          <mxGeometry x="-540" y="-480" width="117" height="40" as="geometry" />
        </mxCell>
        <mxCell id="7WPqTpYTu4cjZgGMhfP6-1" value="" style="endArrow=none;dashed=1;html=1;rounded=0;" parent="1" edge="1">
          <mxGeometry width="50" height="50" relative="1" as="geometry">
            <mxPoint x="-821" y="1569.3333333333333" as="sourcePoint" />
            <mxPoint x="-821" y="-420" as="targetPoint" />
          </mxGeometry>
        </mxCell>
        <mxCell id="ygTjdBkm7AIvR7d-rQXc-1" value="" style="endArrow=classic;html=1;rounded=0;" parent="1" edge="1">
          <mxGeometry width="50" height="50" relative="1" as="geometry">
            <mxPoint x="-820" y="-390" as="sourcePoint" />
            <mxPoint x="-630" y="-390" as="targetPoint" />
          </mxGeometry>
        </mxCell>
        <mxCell id="U-sjbkchV8vUeiaM4o9h-2" value="validateQuizInfo()" style="text;html=1;strokeColor=none;fillColor=none;align=center;verticalAlign=middle;whiteSpace=wrap;rounded=0;" parent="1" vertex="1">
          <mxGeometry x="-574" y="-350" width="40" height="20" as="geometry" />
        </mxCell>
        <mxCell id="U-sjbkchV8vUeiaM4o9h-3" value="showMessage()" style="text;html=1;strokeColor=none;fillColor=none;align=center;verticalAlign=middle;whiteSpace=wrap;rounded=0;" parent="1" vertex="1">
          <mxGeometry x="-574" y="-297" width="40" height="20" as="geometry" />
        </mxCell>
        <mxCell id="U-sjbkchV8vUeiaM4o9h-4" value="createQuiz()" style="text;html=1;strokeColor=none;fillColor=none;align=center;verticalAlign=middle;whiteSpace=wrap;rounded=0;" parent="1" vertex="1">
          <mxGeometry x="-417" y="-180" width="60" height="30" as="geometry" />
        </mxCell>
        <mxCell id="U-sjbkchV8vUeiaM4o9h-5" value="&lt;b&gt;New:Quiz&lt;/b&gt;" style="html=1;whiteSpace=wrap;" parent="1" vertex="1">
          <mxGeometry x="-269" y="-170" width="85" height="40" as="geometry" />
        </mxCell>
        <mxCell id="U-sjbkchV8vUeiaM4o9h-6" value="Missing Info" style="text;html=1;strokeColor=none;fillColor=none;align=center;verticalAlign=middle;whiteSpace=wrap;rounded=0;fontStyle=0" parent="1" vertex="1">
          <mxGeometry x="-735" y="-313" width="96" height="20" as="geometry" />
        </mxCell>
        <mxCell id="U-sjbkchV8vUeiaM4o9h-7" value="Valid Info" style="text;html=1;strokeColor=none;fillColor=none;align=center;verticalAlign=middle;whiteSpace=wrap;rounded=0;fontStyle=0" parent="1" vertex="1">
          <mxGeometry x="-745" y="-175" width="116" height="17" as="geometry" />
        </mxCell>
        <mxCell id="U-sjbkchV8vUeiaM4o9h-8" value="" style="endArrow=classic;html=1;rounded=0;" parent="1" edge="1">
          <mxGeometry width="50" height="50" relative="1" as="geometry">
            <mxPoint x="-629" y="-356" as="sourcePoint" />
            <mxPoint x="-629" y="-316" as="targetPoint" />
            <Array as="points">
              <mxPoint x="-609" y="-356" />
              <mxPoint x="-609" y="-316" />
            </Array>
          </mxGeometry>
        </mxCell>
        <mxCell id="U-sjbkchV8vUeiaM4o9h-9" value="" style="endArrow=classic;html=1;rounded=0;" parent="1" edge="1">
          <mxGeometry width="50" height="50" relative="1" as="geometry">
            <mxPoint x="-629" y="-274" as="sourcePoint" />
            <mxPoint x="-480" y="-274" as="targetPoint" />
          </mxGeometry>
        </mxCell>
        <mxCell id="U-sjbkchV8vUeiaM4o9h-10" value="" style="endArrow=classic;html=1;rounded=0;" parent="1" edge="1">
          <mxGeometry width="50" height="50" relative="1" as="geometry">
            <mxPoint x="-628" y="-240" as="sourcePoint" />
            <mxPoint x="-628" y="-200" as="targetPoint" />
            <Array as="points">
              <mxPoint x="-608" y="-240" />
              <mxPoint x="-608" y="-200" />
            </Array>
          </mxGeometry>
        </mxCell>
        <mxCell id="U-sjbkchV8vUeiaM4o9h-11" value="&lt;font color=&quot;#ff0000&quot; style=&quot;font-size: 11px;&quot;&gt;Alternative&lt;/font&gt;" style="shape=umlFrame;whiteSpace=wrap;html=1;pointerEvents=0;strokeWidth=2;align=left;" parent="1" vertex="1">
          <mxGeometry x="-724" y="-373" width="430" height="240" as="geometry" />
        </mxCell>
        <mxCell id="U-sjbkchV8vUeiaM4o9h-12" value="" style="line;strokeWidth=2;fillColor=none;align=left;verticalAlign=middle;spacingTop=-1;spacingLeft=3;spacingRight=3;rotatable=0;labelPosition=right;points=[];portConstraint=eastwest;strokeColor=inherit;dashed=1;dashPattern=12 12;" parent="1" vertex="1">
          <mxGeometry x="-724" y="-188" width="410" height="8" as="geometry" />
        </mxCell>
        <mxCell id="U-sjbkchV8vUeiaM4o9h-13" value="validateQuizInfo()" style="text;html=1;strokeColor=none;fillColor=none;align=center;verticalAlign=middle;whiteSpace=wrap;rounded=0;" parent="1" vertex="1">
          <mxGeometry x="-574" y="-228" width="40" height="20" as="geometry" />
        </mxCell>
        <mxCell id="U-sjbkchV8vUeiaM4o9h-14" value="" style="endArrow=classic;html=1;rounded=0;entryX=0;entryY=0.5;entryDx=0;entryDy=0;" parent="1" edge="1">
          <mxGeometry width="50" height="50" relative="1" as="geometry">
            <mxPoint x="-629" y="-152" as="sourcePoint" />
            <mxPoint x="-269" y="-152" as="targetPoint" />
          </mxGeometry>
        </mxCell>
        <mxCell id="U-sjbkchV8vUeiaM4o9h-15" value="" style="endArrow=none;dashed=1;html=1;rounded=0;entryX=0.5;entryY=1;entryDx=0;entryDy=0;" parent="1" source="sfJsisjDW1i8cSSSTUoh-2" target="OZdUed6lWy20u_6zU2IN-1" edge="1">
          <mxGeometry width="50" height="50" relative="1" as="geometry">
            <mxPoint x="-481" y="1570" as="sourcePoint" />
            <mxPoint x="-410" y="-440" as="targetPoint" />
          </mxGeometry>
        </mxCell>
        <mxCell id="y525xyZ4QBbeQyVy7SIy-1" value="" style="endArrow=classic;html=1;rounded=0;" parent="1" target="sfJsisjDW1i8cSSSTUoh-1" edge="1">
          <mxGeometry width="50" height="50" relative="1" as="geometry">
            <mxPoint x="-820" y="-250" as="sourcePoint" />
            <mxPoint x="-480" y="-250" as="targetPoint" />
          </mxGeometry>
        </mxCell>
        <mxCell id="y525xyZ4QBbeQyVy7SIy-2" value="" style="endArrow=none;dashed=1;html=1;rounded=0;entryX=0.5;entryY=1;entryDx=0;entryDy=0;" parent="1" target="U-sjbkchV8vUeiaM4o9h-5" edge="1">
          <mxGeometry width="50" height="50" relative="1" as="geometry">
            <mxPoint x="-220" y="1550" as="sourcePoint" />
            <mxPoint x="-410" y="-160" as="targetPoint" />
          </mxGeometry>
        </mxCell>
        <mxCell id="ct5xpN9f8UD1EQxiW02S-3" value="" style="endArrow=classic;html=1;rounded=0;" parent="1" edge="1">
          <mxGeometry width="50" height="50" relative="1" as="geometry">
            <mxPoint x="-820" y="-118" as="sourcePoint" />
            <mxPoint x="-630" y="-118" as="targetPoint" />
          </mxGeometry>
        </mxCell>
        <mxCell id="pfViRbHT--CCzbTk7z4I-1" value="showMessage()" style="text;html=1;strokeColor=none;fillColor=none;align=center;verticalAlign=middle;whiteSpace=wrap;rounded=0;" parent="1" vertex="1">
          <mxGeometry x="-574" y="312" width="40" height="20" as="geometry" />
        </mxCell>
        <mxCell id="pfViRbHT--CCzbTk7z4I-2" value="showMessage()" style="text;html=1;strokeColor=none;fillColor=none;align=center;verticalAlign=middle;whiteSpace=wrap;rounded=0;" parent="1" vertex="1">
          <mxGeometry x="613" y="1476" width="60" height="30" as="geometry" />
        </mxCell>
        <mxCell id="pfViRbHT--CCzbTk7z4I-3" value="" style="line;strokeWidth=2;fillColor=none;align=left;verticalAlign=middle;spacingTop=-1;spacingLeft=3;spacingRight=3;rotatable=0;labelPosition=right;points=[];portConstraint=eastwest;strokeColor=inherit;dashed=1;dashPattern=12 12;" parent="1" vertex="1">
          <mxGeometry x="-724" y="442" width="430" height="8" as="geometry" />
        </mxCell>
        <mxCell id="pfViRbHT--CCzbTk7z4I-4" value="" style="endArrow=classic;html=1;rounded=0;" parent="1" edge="1">
          <mxGeometry width="50" height="50" relative="1" as="geometry">
            <mxPoint x="-629" y="257" as="sourcePoint" />
            <mxPoint x="-629" y="297" as="targetPoint" />
            <Array as="points">
              <mxPoint x="-609" y="257" />
              <mxPoint x="-609" y="297" />
            </Array>
          </mxGeometry>
        </mxCell>
        <mxCell id="pfViRbHT--CCzbTk7z4I-5" value="validateQuizQuestion()" style="text;html=1;strokeColor=none;fillColor=none;align=center;verticalAlign=middle;whiteSpace=wrap;rounded=0;" parent="1" vertex="1">
          <mxGeometry x="-564" y="263" width="40" height="20" as="geometry" />
        </mxCell>
        <mxCell id="pfViRbHT--CCzbTk7z4I-6" value="" style="endArrow=classic;html=1;rounded=0;" parent="1" edge="1">
          <mxGeometry width="50" height="50" relative="1" as="geometry">
            <mxPoint x="-627" y="336.3299999999999" as="sourcePoint" />
            <mxPoint x="-480" y="336" as="targetPoint" />
          </mxGeometry>
        </mxCell>
        <mxCell id="pfViRbHT--CCzbTk7z4I-7" value="" style="endArrow=classic;html=1;rounded=0;" parent="1" edge="1">
          <mxGeometry width="50" height="50" relative="1" as="geometry">
            <mxPoint x="-629" y="387" as="sourcePoint" />
            <mxPoint x="-629" y="427" as="targetPoint" />
            <Array as="points">
              <mxPoint x="-609" y="387" />
              <mxPoint x="-609" y="427" />
            </Array>
          </mxGeometry>
        </mxCell>
        <mxCell id="pfViRbHT--CCzbTk7z4I-8" value="validateQuizQuestion()" style="text;html=1;strokeColor=none;fillColor=none;align=center;verticalAlign=middle;whiteSpace=wrap;rounded=0;" parent="1" vertex="1">
          <mxGeometry x="-566" y="397" width="40" height="20" as="geometry" />
        </mxCell>
        <mxCell id="pfViRbHT--CCzbTk7z4I-9" value="&lt;font style=&quot;font-size: 11px;&quot; color=&quot;#ff0000&quot;&gt;Alternative&lt;/font&gt;" style="shape=umlFrame;whiteSpace=wrap;html=1;pointerEvents=0;strokeWidth=2;align=left;" parent="1" vertex="1">
          <mxGeometry x="-724" y="246" width="430" height="250" as="geometry" />
        </mxCell>
        <mxCell id="pfViRbHT--CCzbTk7z4I-10" value="Missing Info" style="text;html=1;strokeColor=none;fillColor=none;align=center;verticalAlign=middle;whiteSpace=wrap;rounded=0;fontStyle=0;fontColor=#FF3333;" parent="1" vertex="1">
          <mxGeometry x="-732" y="310" width="96" height="20" as="geometry" />
        </mxCell>
        <mxCell id="pfViRbHT--CCzbTk7z4I-11" value="Valid Info" style="text;html=1;strokeColor=none;fillColor=none;align=center;verticalAlign=middle;whiteSpace=wrap;rounded=0;fontStyle=0;fontColor=#FF3333;" parent="1" vertex="1">
          <mxGeometry x="-740" y="454" width="116" height="17" as="geometry" />
        </mxCell>
        <mxCell id="NfJfO6NNxrV7QrleWhiH-1" value="validateFileSize()" style="text;html=1;strokeColor=none;fillColor=none;align=center;verticalAlign=middle;whiteSpace=wrap;rounded=0;" parent="1" vertex="1">
          <mxGeometry x="-588" y="56" width="60" height="30" as="geometry" />
        </mxCell>
        <mxCell id="NfJfO6NNxrV7QrleWhiH-2" value="Valid file size" style="text;html=1;strokeColor=none;fillColor=none;align=center;verticalAlign=middle;whiteSpace=wrap;rounded=0;fontColor=#FF3333;" parent="1" vertex="1">
          <mxGeometry x="-716" y="126" width="66" height="10" as="geometry" />
        </mxCell>
        <mxCell id="NfJfO6NNxrV7QrleWhiH-3" value="Invalid file size" style="text;html=1;strokeColor=none;fillColor=none;align=center;verticalAlign=middle;whiteSpace=wrap;rounded=0;fontColor=#FF3333;" parent="1" vertex="1">
          <mxGeometry x="-716" y="-4" width="62" height="10" as="geometry" />
        </mxCell>
        <mxCell id="NfJfO6NNxrV7QrleWhiH-4" value="validateFileSize()" style="text;html=1;strokeColor=none;fillColor=none;align=center;verticalAlign=middle;whiteSpace=wrap;rounded=0;" parent="1" vertex="1">
          <mxGeometry x="-588" y="-64" width="60" height="30" as="geometry" />
        </mxCell>
        <mxCell id="NfJfO6NNxrV7QrleWhiH-5" value="&lt;font style=&quot;font-size: 11px;&quot; color=&quot;#ff0000&quot;&gt;Alternative&lt;/font&gt;" style="shape=umlFrame;whiteSpace=wrap;html=1;pointerEvents=0;strokeWidth=2;align=left;" parent="1" vertex="1">
          <mxGeometry x="-724" y="-78" width="430" height="246" as="geometry" />
        </mxCell>
        <mxCell id="NfJfO6NNxrV7QrleWhiH-6" value="" style="endArrow=classic;html=1;rounded=0;" parent="1" edge="1">
          <mxGeometry width="50" height="50" relative="1" as="geometry">
            <mxPoint x="-627" y="-66" as="sourcePoint" />
            <mxPoint x="-627" y="-26" as="targetPoint" />
            <Array as="points">
              <mxPoint x="-607" y="-66" />
              <mxPoint x="-607" y="-26" />
            </Array>
          </mxGeometry>
        </mxCell>
        <mxCell id="NfJfO6NNxrV7QrleWhiH-7" value="showMessage()" style="text;html=1;strokeColor=none;fillColor=none;align=center;verticalAlign=middle;whiteSpace=wrap;rounded=0;" parent="1" vertex="1">
          <mxGeometry x="-572" y="-4" width="40" height="20" as="geometry" />
        </mxCell>
        <mxCell id="NfJfO6NNxrV7QrleWhiH-8" value="" style="endArrow=classic;html=1;rounded=0;" parent="1" edge="1">
          <mxGeometry width="50" height="50" relative="1" as="geometry">
            <mxPoint x="-627" y="49" as="sourcePoint" />
            <mxPoint x="-627" y="89" as="targetPoint" />
            <Array as="points">
              <mxPoint x="-607" y="49" />
              <mxPoint x="-607" y="89" />
            </Array>
          </mxGeometry>
        </mxCell>
        <mxCell id="NfJfO6NNxrV7QrleWhiH-9" value="" style="line;strokeWidth=2;fillColor=none;align=left;verticalAlign=middle;spacingTop=-1;spacingLeft=3;spacingRight=3;rotatable=0;labelPosition=right;points=[];portConstraint=eastwest;strokeColor=inherit;dashed=1;dashPattern=12 12;" parent="1" vertex="1">
          <mxGeometry x="-721" y="100" width="430" height="8" as="geometry" />
        </mxCell>
        <mxCell id="o3dXd-ZbQsRkMiCz_S8R-1" value="InvalidSizeMessage" style="html=1;whiteSpace=wrap;" parent="1" vertex="1">
          <mxGeometry x="-160" y="-480" width="120" height="40" as="geometry" />
        </mxCell>
        <mxCell id="o3dXd-ZbQsRkMiCz_S8R-2" value="" style="endArrow=none;dashed=1;html=1;rounded=0;entryX=0.5;entryY=1;entryDx=0;entryDy=0;" parent="1" source="sfJsisjDW1i8cSSSTUoh-11" target="o3dXd-ZbQsRkMiCz_S8R-1" edge="1">
          <mxGeometry width="50" height="50" relative="1" as="geometry">
            <mxPoint x="-100" y="1550" as="sourcePoint" />
            <mxPoint x="-410" y="-290" as="targetPoint" />
          </mxGeometry>
        </mxCell>
        <mxCell id="o3dXd-ZbQsRkMiCz_S8R-3" value="" style="endArrow=classic;html=1;rounded=0;" parent="1" edge="1">
          <mxGeometry width="50" height="50" relative="1" as="geometry">
            <mxPoint x="-630" y="16" as="sourcePoint" />
            <mxPoint x="-100" y="16" as="targetPoint" />
          </mxGeometry>
        </mxCell>
        <mxCell id="eTOZqsaphGKhb9PWLClZ-1" value="" style="endArrow=classic;html=1;rounded=0;" parent="1" edge="1">
          <mxGeometry width="50" height="50" relative="1" as="geometry">
            <mxPoint x="-820" y="31" as="sourcePoint" />
            <mxPoint x="-630" y="31" as="targetPoint" />
          </mxGeometry>
        </mxCell>
        <mxCell id="eTOZqsaphGKhb9PWLClZ-2" value="" style="endArrow=classic;html=1;rounded=0;" parent="1" edge="1">
          <mxGeometry width="50" height="50" relative="1" as="geometry">
            <mxPoint x="-820" y="210" as="sourcePoint" />
            <mxPoint x="-630" y="211" as="targetPoint" />
          </mxGeometry>
        </mxCell>
        <mxCell id="zHBHBbXiMbCr1XOc8wMH-1" value="selectedFile" style="html=1;whiteSpace=wrap;" parent="1" vertex="1">
          <mxGeometry x="-20" y="-480" width="120" height="40" as="geometry" />
        </mxCell>
        <mxCell id="zHBHBbXiMbCr1XOc8wMH-2" value="" style="endArrow=none;dashed=1;html=1;rounded=0;entryX=0.5;entryY=1;entryDx=0;entryDy=0;" parent="1" source="sfJsisjDW1i8cSSSTUoh-13" target="zHBHBbXiMbCr1XOc8wMH-1" edge="1">
          <mxGeometry width="50" height="50" relative="1" as="geometry">
            <mxPoint x="40" y="1560" as="sourcePoint" />
            <mxPoint x="-290" y="-180" as="targetPoint" />
          </mxGeometry>
        </mxCell>
        <mxCell id="zHBHBbXiMbCr1XOc8wMH-3" value="" style="endArrow=classic;html=1;rounded=0;" parent="1" edge="1">
          <mxGeometry width="50" height="50" relative="1" as="geometry">
            <mxPoint x="-630" y="-90" as="sourcePoint" />
            <mxPoint x="40" y="-90" as="targetPoint" />
          </mxGeometry>
        </mxCell>
        <mxCell id="zHBHBbXiMbCr1XOc8wMH-5" value="uploadFile()" style="text;html=1;strokeColor=none;fillColor=none;align=center;verticalAlign=middle;whiteSpace=wrap;rounded=0;" parent="1" vertex="1">
          <mxGeometry x="-585" y="-120" width="60" height="30" as="geometry" />
        </mxCell>
        <mxCell id="zHBHBbXiMbCr1XOc8wMH-6" value="" style="endArrow=classic;html=1;rounded=0;" parent="1" edge="1">
          <mxGeometry width="50" height="50" relative="1" as="geometry">
            <mxPoint x="-820" y="372" as="sourcePoint" />
            <mxPoint x="-630" y="372" as="targetPoint" />
          </mxGeometry>
        </mxCell>
        <mxCell id="oaeTFv-30haYCRnLGw60-1" value="&lt;b&gt;New:Question&lt;/b&gt;" style="html=1;whiteSpace=wrap;" parent="1" vertex="1">
          <mxGeometry x="80" y="450" width="90" height="40" as="geometry" />
        </mxCell>
        <mxCell id="oaeTFv-30haYCRnLGw60-2" value="" style="endArrow=classic;html=1;rounded=0;entryX=0;entryY=0.5;entryDx=0;entryDy=0;" parent="1" target="oaeTFv-30haYCRnLGw60-1" edge="1">
          <mxGeometry width="50" height="50" relative="1" as="geometry">
            <mxPoint x="-630" y="470" as="sourcePoint" />
            <mxPoint x="70" y="470" as="targetPoint" />
          </mxGeometry>
        </mxCell>
        <mxCell id="JdDEehWC4XGXDuXnfNYc-1" value="createQuestion()" style="text;html=1;strokeColor=none;fillColor=none;align=center;verticalAlign=middle;whiteSpace=wrap;rounded=0;" parent="1" vertex="1">
          <mxGeometry x="-400" y="447.5" width="60" height="30" as="geometry" />
        </mxCell>
        <mxCell id="JdDEehWC4XGXDuXnfNYc-2" value="" style="endArrow=none;dashed=1;html=1;rounded=0;entryX=0.5;entryY=1;entryDx=0;entryDy=0;" parent="1" target="oaeTFv-30haYCRnLGw60-1" edge="1">
          <mxGeometry width="50" height="50" relative="1" as="geometry">
            <mxPoint x="125" y="1550" as="sourcePoint" />
            <mxPoint x="-280" y="340" as="targetPoint" />
          </mxGeometry>
        </mxCell>
        <mxCell id="JdDEehWC4XGXDuXnfNYc-4" value="showMessage()" style="text;html=1;strokeColor=none;fillColor=none;align=center;verticalAlign=middle;whiteSpace=wrap;rounded=0;" parent="1" vertex="1">
          <mxGeometry x="-574" y="930" width="40" height="20" as="geometry" />
        </mxCell>
        <mxCell id="JdDEehWC4XGXDuXnfNYc-5" value="" style="line;strokeWidth=2;fillColor=none;align=left;verticalAlign=middle;spacingTop=-1;spacingLeft=3;spacingRight=3;rotatable=0;labelPosition=right;points=[];portConstraint=eastwest;strokeColor=inherit;dashed=1;dashPattern=12 12;" parent="1" vertex="1">
          <mxGeometry x="-724" y="1060" width="430" height="8" as="geometry" />
        </mxCell>
        <mxCell id="JdDEehWC4XGXDuXnfNYc-6" value="" style="endArrow=classic;html=1;rounded=0;" parent="1" edge="1">
          <mxGeometry width="50" height="50" relative="1" as="geometry">
            <mxPoint x="-629" y="875" as="sourcePoint" />
            <mxPoint x="-629" y="915" as="targetPoint" />
            <Array as="points">
              <mxPoint x="-609" y="875" />
              <mxPoint x="-609" y="915" />
            </Array>
          </mxGeometry>
        </mxCell>
        <mxCell id="JdDEehWC4XGXDuXnfNYc-7" value="validateQuizQuestion()" style="text;html=1;strokeColor=none;fillColor=none;align=center;verticalAlign=middle;whiteSpace=wrap;rounded=0;" parent="1" vertex="1">
          <mxGeometry x="-564" y="881" width="40" height="20" as="geometry" />
        </mxCell>
        <mxCell id="JdDEehWC4XGXDuXnfNYc-8" value="" style="endArrow=classic;html=1;rounded=0;" parent="1" edge="1">
          <mxGeometry width="50" height="50" relative="1" as="geometry">
            <mxPoint x="-627" y="954.3299999999999" as="sourcePoint" />
            <mxPoint x="-480" y="954" as="targetPoint" />
          </mxGeometry>
        </mxCell>
        <mxCell id="JdDEehWC4XGXDuXnfNYc-9" value="" style="endArrow=classic;html=1;rounded=0;" parent="1" edge="1">
          <mxGeometry width="50" height="50" relative="1" as="geometry">
            <mxPoint x="-629" y="1005" as="sourcePoint" />
            <mxPoint x="-629" y="1045" as="targetPoint" />
            <Array as="points">
              <mxPoint x="-609" y="1005" />
              <mxPoint x="-609" y="1045" />
            </Array>
          </mxGeometry>
        </mxCell>
        <mxCell id="JdDEehWC4XGXDuXnfNYc-10" value="validateQuizQuestion()" style="text;html=1;strokeColor=none;fillColor=none;align=center;verticalAlign=middle;whiteSpace=wrap;rounded=0;" parent="1" vertex="1">
          <mxGeometry x="-566" y="1015" width="40" height="20" as="geometry" />
        </mxCell>
        <mxCell id="JdDEehWC4XGXDuXnfNYc-11" value="&lt;font style=&quot;font-size: 11px;&quot; color=&quot;#ff0000&quot;&gt;Alternative&lt;/font&gt;" style="shape=umlFrame;whiteSpace=wrap;html=1;pointerEvents=0;strokeWidth=2;align=left;" parent="1" vertex="1">
          <mxGeometry x="-724" y="864" width="430" height="250" as="geometry" />
        </mxCell>
        <mxCell id="JdDEehWC4XGXDuXnfNYc-12" value="Missing Info" style="text;html=1;strokeColor=none;fillColor=none;align=center;verticalAlign=middle;whiteSpace=wrap;rounded=0;fontStyle=0;fontColor=#FF3333;" parent="1" vertex="1">
          <mxGeometry x="-732" y="928" width="96" height="20" as="geometry" />
        </mxCell>
        <mxCell id="JdDEehWC4XGXDuXnfNYc-13" value="Valid Info" style="text;html=1;strokeColor=none;fillColor=none;align=center;verticalAlign=middle;whiteSpace=wrap;rounded=0;fontStyle=0;fontColor=#FF3333;" parent="1" vertex="1">
          <mxGeometry x="-740" y="1094" width="116" height="17" as="geometry" />
        </mxCell>
        <mxCell id="JdDEehWC4XGXDuXnfNYc-14" value="validateFileSize()" style="text;html=1;strokeColor=none;fillColor=none;align=center;verticalAlign=middle;whiteSpace=wrap;rounded=0;" parent="1" vertex="1">
          <mxGeometry x="-588" y="707" width="60" height="30" as="geometry" />
        </mxCell>
        <mxCell id="JdDEehWC4XGXDuXnfNYc-15" value="Valid file size" style="text;html=1;strokeColor=none;fillColor=none;align=center;verticalAlign=middle;whiteSpace=wrap;rounded=0;fontColor=#FF3333;" parent="1" vertex="1">
          <mxGeometry x="-716" y="777" width="66" height="10" as="geometry" />
        </mxCell>
        <mxCell id="JdDEehWC4XGXDuXnfNYc-16" value="Invalid file size" style="text;html=1;strokeColor=none;fillColor=none;align=center;verticalAlign=middle;whiteSpace=wrap;rounded=0;fontColor=#FF3333;" parent="1" vertex="1">
          <mxGeometry x="-716" y="647" width="62" height="10" as="geometry" />
        </mxCell>
        <mxCell id="JdDEehWC4XGXDuXnfNYc-17" value="validateFileSize()" style="text;html=1;strokeColor=none;fillColor=none;align=center;verticalAlign=middle;whiteSpace=wrap;rounded=0;" parent="1" vertex="1">
          <mxGeometry x="-588" y="587" width="60" height="30" as="geometry" />
        </mxCell>
        <mxCell id="JdDEehWC4XGXDuXnfNYc-18" value="&lt;font style=&quot;font-size: 11px;&quot; color=&quot;#ff0000&quot;&gt;Alternative&lt;/font&gt;" style="shape=umlFrame;whiteSpace=wrap;html=1;pointerEvents=0;strokeWidth=2;align=left;" parent="1" vertex="1">
          <mxGeometry x="-724" y="574" width="430" height="246" as="geometry" />
        </mxCell>
        <mxCell id="JdDEehWC4XGXDuXnfNYc-19" value="" style="endArrow=classic;html=1;rounded=0;" parent="1" edge="1">
          <mxGeometry width="50" height="50" relative="1" as="geometry">
            <mxPoint x="-627" y="585" as="sourcePoint" />
            <mxPoint x="-627" y="625" as="targetPoint" />
            <Array as="points">
              <mxPoint x="-607" y="585" />
              <mxPoint x="-607" y="625" />
            </Array>
          </mxGeometry>
        </mxCell>
        <mxCell id="JdDEehWC4XGXDuXnfNYc-20" value="showMessage()" style="text;html=1;strokeColor=none;fillColor=none;align=center;verticalAlign=middle;whiteSpace=wrap;rounded=0;" parent="1" vertex="1">
          <mxGeometry x="-572" y="647" width="40" height="20" as="geometry" />
        </mxCell>
        <mxCell id="JdDEehWC4XGXDuXnfNYc-21" value="" style="endArrow=classic;html=1;rounded=0;" parent="1" edge="1">
          <mxGeometry width="50" height="50" relative="1" as="geometry">
            <mxPoint x="-627" y="700" as="sourcePoint" />
            <mxPoint x="-627" y="740" as="targetPoint" />
            <Array as="points">
              <mxPoint x="-607" y="700" />
              <mxPoint x="-607" y="740" />
            </Array>
          </mxGeometry>
        </mxCell>
        <mxCell id="JdDEehWC4XGXDuXnfNYc-22" value="" style="line;strokeWidth=2;fillColor=none;align=left;verticalAlign=middle;spacingTop=-1;spacingLeft=3;spacingRight=3;rotatable=0;labelPosition=right;points=[];portConstraint=eastwest;strokeColor=inherit;dashed=1;dashPattern=12 12;" parent="1" vertex="1">
          <mxGeometry x="-721" y="751" width="430" height="8" as="geometry" />
        </mxCell>
        <mxCell id="JdDEehWC4XGXDuXnfNYc-23" value="createQuestion()" style="text;html=1;strokeColor=none;fillColor=none;align=center;verticalAlign=middle;whiteSpace=wrap;rounded=0;" parent="1" vertex="1">
          <mxGeometry x="-400" y="1065.5" width="60" height="30" as="geometry" />
        </mxCell>
        <mxCell id="JdDEehWC4XGXDuXnfNYc-25" value="" style="swimlane;startSize=0;" parent="1" vertex="1">
          <mxGeometry x="-776" y="523" width="520" height="710" as="geometry" />
        </mxCell>
        <mxCell id="JdDEehWC4XGXDuXnfNYc-26" value="&lt;b&gt;&lt;font color=&quot;#ff0000&quot; style=&quot;font-size: 13px;&quot;&gt;Alternative&lt;/font&gt;&lt;/b&gt;" style="text;html=1;strokeColor=none;fillColor=none;align=center;verticalAlign=middle;whiteSpace=wrap;rounded=0;" parent="JdDEehWC4XGXDuXnfNYc-25" vertex="1">
          <mxGeometry x="20" width="60" height="30" as="geometry" />
        </mxCell>
        <mxCell id="JdDEehWC4XGXDuXnfNYc-27" value="" style="line;strokeWidth=2;fillColor=none;align=left;verticalAlign=middle;spacingTop=-1;spacingLeft=3;spacingRight=3;rotatable=0;labelPosition=right;points=[];portConstraint=eastwest;strokeColor=inherit;dashed=1;dashPattern=12 12;" parent="JdDEehWC4XGXDuXnfNYc-25" vertex="1">
          <mxGeometry y="619" width="510" height="8" as="geometry" />
        </mxCell>
        <mxCell id="JdDEehWC4XGXDuXnfNYc-28" value="&lt;font color=&quot;#ff0000&quot; style=&quot;font-size: 11px;&quot;&gt;Add new question&lt;/font&gt;" style="text;html=1;strokeColor=none;fillColor=none;align=center;verticalAlign=middle;whiteSpace=wrap;rounded=0;fontSize=11;" parent="JdDEehWC4XGXDuXnfNYc-25" vertex="1">
          <mxGeometry x="-14" y="133" width="80" height="40" as="geometry" />
        </mxCell>
        <mxCell id="JdDEehWC4XGXDuXnfNYc-29" value="&lt;font color=&quot;#ff0000&quot;&gt;Continue&lt;/font&gt;" style="text;html=1;strokeColor=none;fillColor=none;align=center;verticalAlign=middle;whiteSpace=wrap;rounded=0;" parent="JdDEehWC4XGXDuXnfNYc-25" vertex="1">
          <mxGeometry x="10" y="643" width="60" height="30" as="geometry" />
        </mxCell>
        <mxCell id="sfJsisjDW1i8cSSSTUoh-7" value="" style="html=1;points=[];perimeter=orthogonalPerimeter;outlineConnect=0;targetShapes=umlLifeline;portConstraint=eastwest;newEdgeStyle={&quot;edgeStyle&quot;:&quot;elbowEdgeStyle&quot;,&quot;elbow&quot;:&quot;vertical&quot;,&quot;curved&quot;:0,&quot;rounded&quot;:0};" parent="JdDEehWC4XGXDuXnfNYc-25" vertex="1">
          <mxGeometry x="289.5" y="150" width="10" height="23" as="geometry" />
        </mxCell>
        <mxCell id="JdDEehWC4XGXDuXnfNYc-30" value="" style="endArrow=classic;html=1;rounded=0;" parent="1" edge="1">
          <mxGeometry width="50" height="50" relative="1" as="geometry">
            <mxPoint x="-820" y="552" as="sourcePoint" />
            <mxPoint x="-630" y="552" as="targetPoint" />
          </mxGeometry>
        </mxCell>
        <mxCell id="JdDEehWC4XGXDuXnfNYc-31" value="" style="endArrow=classic;html=1;rounded=0;" parent="1" edge="1">
          <mxGeometry width="50" height="50" relative="1" as="geometry">
            <mxPoint x="-630" y="670" as="sourcePoint" />
            <mxPoint x="-480" y="670" as="targetPoint" />
          </mxGeometry>
        </mxCell>
        <mxCell id="JdDEehWC4XGXDuXnfNYc-32" value="" style="endArrow=classic;html=1;rounded=0;" parent="1" edge="1">
          <mxGeometry width="50" height="50" relative="1" as="geometry">
            <mxPoint x="-820" y="840" as="sourcePoint" />
            <mxPoint x="-630" y="840" as="targetPoint" />
          </mxGeometry>
        </mxCell>
        <mxCell id="48siPlE83_Nrk3r1juYz-1" value="QuizPreviewView" style="html=1;whiteSpace=wrap;" parent="1" vertex="1">
          <mxGeometry x="180" y="-480" width="135" height="40" as="geometry" />
        </mxCell>
        <mxCell id="48siPlE83_Nrk3r1juYz-2" value="" style="endArrow=none;dashed=1;html=1;rounded=0;entryX=0.5;entryY=1;entryDx=0;entryDy=0;" parent="1" source="sfJsisjDW1i8cSSSTUoh-15" target="48siPlE83_Nrk3r1juYz-1" edge="1">
          <mxGeometry width="50" height="50" relative="1" as="geometry">
            <mxPoint x="248" y="1550" as="sourcePoint" />
            <mxPoint x="-140" y="450" as="targetPoint" />
          </mxGeometry>
        </mxCell>
        <mxCell id="48siPlE83_Nrk3r1juYz-3" value="" style="endArrow=classic;html=1;rounded=0;" parent="1" edge="1">
          <mxGeometry width="50" height="50" relative="1" as="geometry">
            <mxPoint x="-630" y="1220" as="sourcePoint" />
            <mxPoint x="250" y="1220" as="targetPoint" />
          </mxGeometry>
        </mxCell>
        <mxCell id="48siPlE83_Nrk3r1juYz-4" value="" style="endArrow=classic;html=1;rounded=0;" parent="1" edge="1">
          <mxGeometry width="50" height="50" relative="1" as="geometry">
            <mxPoint x="-820" y="1200" as="sourcePoint" />
            <mxPoint x="-630" y="1200" as="targetPoint" />
          </mxGeometry>
        </mxCell>
        <mxCell id="48siPlE83_Nrk3r1juYz-6" value="" style="endArrow=classic;html=1;rounded=0;" parent="1" edge="1">
          <mxGeometry width="50" height="50" relative="1" as="geometry">
            <mxPoint x="-820" y="1265" as="sourcePoint" />
            <mxPoint x="250" y="1265" as="targetPoint" />
          </mxGeometry>
        </mxCell>
        <mxCell id="HPCcKQ3aulPoxstERWA4-1" value="&lt;b&gt;:ToursHistoryController&lt;br&gt;&lt;/b&gt;" style="html=1;whiteSpace=wrap;" parent="1" vertex="1">
          <mxGeometry x="340" y="-480" width="144" height="39.5" as="geometry" />
        </mxCell>
        <mxCell id="HPCcKQ3aulPoxstERWA4-3" value="" style="endArrow=classic;html=1;rounded=0;" parent="1" edge="1">
          <mxGeometry width="50" height="50" relative="1" as="geometry">
            <mxPoint x="-630" y="1320" as="sourcePoint" />
            <mxPoint x="410" y="1320" as="targetPoint" />
          </mxGeometry>
        </mxCell>
        <mxCell id="HPCcKQ3aulPoxstERWA4-4" value="" style="endArrow=classic;html=1;rounded=0;" parent="1" edge="1">
          <mxGeometry width="50" height="50" relative="1" as="geometry">
            <mxPoint x="-820" y="1360" as="sourcePoint" />
            <mxPoint x="410" y="1360" as="targetPoint" />
          </mxGeometry>
        </mxCell>
        <mxCell id="HPCcKQ3aulPoxstERWA4-5" value="" style="endArrow=classic;html=1;rounded=0;" parent="1" edge="1">
          <mxGeometry width="50" height="50" relative="1" as="geometry">
            <mxPoint x="406" y="1400" as="sourcePoint" />
            <mxPoint x="-634" y="1400" as="targetPoint" />
          </mxGeometry>
        </mxCell>
        <mxCell id="HPCcKQ3aulPoxstERWA4-6" value="quizTourConnection()" style="text;html=1;strokeColor=none;fillColor=none;align=center;verticalAlign=middle;whiteSpace=wrap;rounded=0;" parent="1" vertex="1">
          <mxGeometry x="290" y="1370" width="60" height="30" as="geometry" />
        </mxCell>
        <mxCell id="GTGUJF7UafAMdIp2ymYp-1" value="&lt;b&gt;:DBCommunicator&lt;/b&gt;" style="html=1;whiteSpace=wrap;" parent="1" vertex="1">
          <mxGeometry x="500" y="-479.5" width="144" height="39.5" as="geometry" />
        </mxCell>
        <mxCell id="GTGUJF7UafAMdIp2ymYp-2" value="" style="endArrow=classic;html=1;rounded=0;" parent="1" edge="1">
          <mxGeometry width="50" height="50" relative="1" as="geometry">
            <mxPoint x="-630" y="1470" as="sourcePoint" />
            <mxPoint x="570" y="1470" as="targetPoint" />
          </mxGeometry>
        </mxCell>
        <mxCell id="11yROoblSG8ug0kKmEGW-1" value="submitQuiz()" style="text;html=1;strokeColor=none;fillColor=none;align=center;verticalAlign=middle;whiteSpace=wrap;rounded=0;" parent="1" vertex="1">
          <mxGeometry x="-600" y="1420" width="60" height="30" as="geometry" />
        </mxCell>
        <mxCell id="11yROoblSG8ug0kKmEGW-2" value="" style="endArrow=classic;html=1;rounded=0;" parent="1" edge="1">
          <mxGeometry width="50" height="50" relative="1" as="geometry">
            <mxPoint x="-629" y="1420" as="sourcePoint" />
            <mxPoint x="-629" y="1460" as="targetPoint" />
            <Array as="points">
              <mxPoint x="-609" y="1420" />
              <mxPoint x="-609" y="1460" />
            </Array>
          </mxGeometry>
        </mxCell>
        <mxCell id="gJWoqJDmnbbrlnluaY-r-1" value="SuccessMessage" style="html=1;whiteSpace=wrap;" parent="1" vertex="1">
          <mxGeometry x="660" y="-480.5" width="105" height="40" as="geometry" />
        </mxCell>
        <mxCell id="gJWoqJDmnbbrlnluaY-r-2" value="" style="endArrow=none;dashed=1;html=1;rounded=0;entryX=0.5;entryY=1;entryDx=0;entryDy=0;" parent="1" source="sfJsisjDW1i8cSSSTUoh-18" target="gJWoqJDmnbbrlnluaY-r-1" edge="1">
          <mxGeometry width="50" height="50" relative="1" as="geometry">
            <mxPoint x="713" y="1563.2000325520833" as="sourcePoint" />
            <mxPoint x="600" y="-440" as="targetPoint" />
          </mxGeometry>
        </mxCell>
        <mxCell id="gJWoqJDmnbbrlnluaY-r-3" value="" style="endArrow=classic;html=1;rounded=0;" parent="1" edge="1">
          <mxGeometry width="50" height="50" relative="1" as="geometry">
            <mxPoint x="-630" y="1510" as="sourcePoint" />
            <mxPoint x="711.0665690104166" y="1510" as="targetPoint" />
          </mxGeometry>
        </mxCell>
        <mxCell id="sfJsisjDW1i8cSSSTUoh-3" value="" style="endArrow=none;dashed=1;html=1;rounded=0;entryX=0.5;entryY=1;entryDx=0;entryDy=0;" parent="1" source="sfJsisjDW1i8cSSSTUoh-4" target="sfJsisjDW1i8cSSSTUoh-2" edge="1">
          <mxGeometry width="50" height="50" relative="1" as="geometry">
            <mxPoint x="-481" y="1570" as="sourcePoint" />
            <mxPoint x="-481" y="-440" as="targetPoint" />
          </mxGeometry>
        </mxCell>
        <mxCell id="sfJsisjDW1i8cSSSTUoh-5" value="" style="endArrow=none;dashed=1;html=1;rounded=0;entryX=0.5;entryY=1;entryDx=0;entryDy=0;" parent="1" source="sfJsisjDW1i8cSSSTUoh-7" target="sfJsisjDW1i8cSSSTUoh-4" edge="1">
          <mxGeometry width="50" height="50" relative="1" as="geometry">
            <mxPoint x="-481" y="1570" as="sourcePoint" />
            <mxPoint x="-481" y="-235" as="targetPoint" />
          </mxGeometry>
        </mxCell>
        <mxCell id="sfJsisjDW1i8cSSSTUoh-6" value="" style="endArrow=none;dashed=1;html=1;rounded=0;entryX=0.5;entryY=1;entryDx=0;entryDy=0;" parent="1" source="sfJsisjDW1i8cSSSTUoh-8" target="sfJsisjDW1i8cSSSTUoh-7" edge="1">
          <mxGeometry width="50" height="50" relative="1" as="geometry">
            <mxPoint x="-481" y="1570" as="sourcePoint" />
            <mxPoint x="-481" y="360" as="targetPoint" />
          </mxGeometry>
        </mxCell>
        <mxCell id="sfJsisjDW1i8cSSSTUoh-9" value="" style="endArrow=none;dashed=1;html=1;rounded=0;entryX=0.5;entryY=1;entryDx=0;entryDy=0;" parent="1" target="sfJsisjDW1i8cSSSTUoh-8" edge="1">
          <mxGeometry width="50" height="50" relative="1" as="geometry">
            <mxPoint x="-481" y="1570" as="sourcePoint" />
            <mxPoint x="-481" y="696" as="targetPoint" />
          </mxGeometry>
        </mxCell>
        <mxCell id="sfJsisjDW1i8cSSSTUoh-10" value="" style="endArrow=none;dashed=1;html=1;rounded=0;entryX=0.5;entryY=1;entryDx=0;entryDy=0;" parent="1" target="sfJsisjDW1i8cSSSTUoh-11" edge="1">
          <mxGeometry width="50" height="50" relative="1" as="geometry">
            <mxPoint x="-100" y="1550" as="sourcePoint" />
            <mxPoint x="-100" y="-440" as="targetPoint" />
          </mxGeometry>
        </mxCell>
        <mxCell id="sfJsisjDW1i8cSSSTUoh-12" value="" style="endArrow=none;dashed=1;html=1;rounded=0;entryX=0.5;entryY=1;entryDx=0;entryDy=0;" parent="1" target="sfJsisjDW1i8cSSSTUoh-13" edge="1">
          <mxGeometry width="50" height="50" relative="1" as="geometry">
            <mxPoint x="40" y="1560" as="sourcePoint" />
            <mxPoint x="40" y="-440" as="targetPoint" />
          </mxGeometry>
        </mxCell>
        <mxCell id="sfJsisjDW1i8cSSSTUoh-14" value="" style="endArrow=none;dashed=1;html=1;rounded=0;entryX=0.5;entryY=1;entryDx=0;entryDy=0;" parent="1" target="sfJsisjDW1i8cSSSTUoh-15" edge="1">
          <mxGeometry width="50" height="50" relative="1" as="geometry">
            <mxPoint x="250" y="1550" as="sourcePoint" />
            <mxPoint x="248" y="-440" as="targetPoint" />
          </mxGeometry>
        </mxCell>
        <mxCell id="sfJsisjDW1i8cSSSTUoh-19" value="" style="endArrow=none;dashed=1;html=1;rounded=0;entryX=0.5;entryY=1;entryDx=0;entryDy=0;" parent="1" target="sfJsisjDW1i8cSSSTUoh-18" edge="1">
          <mxGeometry width="50" height="50" relative="1" as="geometry">
            <mxPoint x="713" y="1563.2000325520833" as="sourcePoint" />
            <mxPoint x="713" y="-440" as="targetPoint" />
          </mxGeometry>
        </mxCell>
      </root>
    </mxGraphModel>
  </diagram>
</mxfile>
